<?xml version="1.0" encoding="UTF-8"?>
<!DOCTYPE svg PUBLIC "-//W3C//DTD SVG 1.1//EN" "http://www.w3.org/Graphics/SVG/1.1/DTD/svg11.dtd">
<!-- Creator: CorelDRAW -->
<svg xmlns="http://www.w3.org/2000/svg" xml:space="preserve" width="1.70637in" height="1.70637in" version="1.1" style="shape-rendering:geometricPrecision; text-rendering:geometricPrecision; image-rendering:optimizeQuality; fill-rule:evenodd; clip-rule:evenodd"
viewBox="0 0 1034.74 1034.74"
 xmlns:xlink="http://www.w3.org/1999/xlink"
 xmlns:xodm="http://www.corel.com/coreldraw/odm/2003">
 <defs>
  <style type="text/css">
   <![CDATA[
    .fil0 {fill:#009688}
   ]]>
  </style>
 </defs>
 <g id="Layer_x0020_1">
  <metadata id="CorelCorpID_0Corel-Layer"/>
  <path class="fil0" d="M171.61 0l691.52 0c94.39,0 171.61,77.23 171.61,171.61l0 691.52c0,94.39 -77.23,171.61 -171.61,171.61l-691.52 0c-94.39,0 -171.61,-77.23 -171.61,-171.61l0 -691.52c0,-94.39 77.23,-171.61 171.61,-171.61zm151.05 633.02l0 -139.48c-28.28,18.98 -53.61,41.92 -74.78,68.08l0 306.98 81.26 0 0 -10.67c0,-34.73 28.41,-63.14 63.14,-63.14l125.09 0 125.09 0c34.73,0 63.14,28.41 63.14,63.14l0 10.67 81.26 0 0 -306.98c-21.17,-26.17 -46.5,-49.1 -74.78,-68.08l0 140.13c0,35.91 -29.38,65.38 -65.29,65.29l-134.92 -0.48 -123.91 -0.16c-29.81,-0.04 -65.29,-35.48 -65.29,-65.29zm315.84 -180.55l28.23 -0.02 0 148.59c0,21.38 -17.49,38.87 -38.87,38.87l-220.98 0c-21.38,0 -38.87,-17.49 -38.87,-38.87l0 -148.71 28.23 -0.05 0 127.02c0,17.34 14.19,31.52 31.53,31.52l179.21 0c17.34,0 31.53,-14.19 31.53,-31.52l0 -126.84zm-121.13 -347.6c82.23,0 148.9,66.67 148.9,148.9 0,82.23 -66.66,148.9 -148.9,148.9 -82.23,0 -148.9,-66.67 -148.9,-148.9 0,-82.23 66.67,-148.9 148.9,-148.9z"/>
 </g>
</svg>
